# File created by Blade
# Date/Time:  Tue Jan 27 18:35:12 2015
#---------------------------------------------------------
:version 1.10
:name HOM
:units
  mass 1.0
  length 1.000000
  angle deg
:documentation
     Acclaim Skeleton File
:root
   axis xyz
   order TX TY TZ RX RY RZ
   position 0.000000 0.000000 0.000000
   orientation 0 0 0
:bonedata
   begin
      id 1
      name Spine_dum
      direction 0.000000 1.000000 0.000000
      length 5.195262
      axis 0.0 0.0 0.0 xyz
   end
   begin
      id 2
      name LeftUpLeg_dum
      direction 1.000000 0.000000 0.000000
      length 3.351363
      axis 0.0 0.0 0.0 xyz
   end
   begin
      id 3
      name RightUpLeg_dum
      direction -1.000000 0.000000 0.000000
      length 3.351363
      axis 0.0 0.0 0.0 xyz
   end
   begin
      id 4
      name Spine
      direction 0.000000 1.000000 0.000000
      length 0.000000
      axis 0.0 0.0 0.0 xyz
      dof rx ry rz
   end
   begin
      id 5
      name Spine_dum1
      direction 0.000000 1.000000 0.000000
      length 15.653875
      axis 0.0 0.0 0.0 xyz
   end
   begin
      id 6
      name Spine_dum2
      direction 0.000000 1.000000 0.000000
      length 10.329768
      axis 0.0 0.0 0.0 xyz
   end
   begin
      id 7
      name Spine_dum3
      direction 0.000000 1.000000 0.000000
      length 10.329768
      axis 0.0 0.0 0.0 xyz
   end
   begin
      id 8
      name Head
      direction 0.000000 1.000000 0.000000
      length 4.527550
      axis 0.0 0.0 0.0 xyz
      dof rx ry rz
   end
   begin
      id 9
      name LeftShoulder
      direction 1.000000 0.000000 0.000000
      length 6.996006
      axis 0.0 0.0 -90.0 xyz
      dof rx ry rz
   end
   begin
      id 10
      name LeftArm
      direction 1.000000 0.000000 0.000000
      length 10.209302
      axis 0.0 0.0 -90.0 xyz
      dof rx ry rz
   end
   begin
      id 11
      name LeftForeArm
      direction 1.000000 0.000000 0.000000
      length 8.563163
      axis 0.0 0.0 -90.0 xyz
      dof ry rz rx
   end
   begin
      id 12
      name LeftHand
      direction 0.000000 0.000000 0.000000
      length 0.000000
      axis 0.0 0.0 -90.0 xyz
      dof rx ry rz
   end
   begin
      id 13
      name LeftHand_dum1
      direction 0.000000 0.000000 0.000000
      length 0.000000
      axis 0.0 0.0 -90.0 xyz
   end
   begin
      id 14
      name LeftHand_dum2
      direction 1.000000 0.000000 0.000000
      length 3.937000
      axis 0.0 0.0 -90.0 xyz
   end
   begin
      id 15
      name LeftHandThumb1
      direction 0.000000 0.000000 1.000000
      length 3.937000
      axis 0.0 0.0 -90.0 xyz
      dof rx rz ry
   end
   begin
      id 16
      name RightShoulder
      direction -1.000000 0.000000 0.000000
      length 6.996006
      axis 0.0 0.0 90.0 xyz
      dof rx ry rz
   end
   begin
      id 17
      name RightArm
      direction -1.000000 0.000000 0.000000
      length 10.209302
      axis 0.0 0.0 90.0 xyz
      dof rx ry rz
   end
   begin
      id 18
      name RightForeArm
      direction -1.000000 0.000000 0.000000
      length 8.563163
      axis 0.0 0.0 90.0 xyz
      dof ry rz rx
   end
   begin
      id 19
      name RightHand
      direction 0.000000 0.000000 0.000000
      length 0.000000
      axis 0.0 0.0 90.0 xyz
      dof rx ry rz
   end
   begin
      id 20
      name RightHand_dum1
      direction 0.000000 0.000000 0.000000
      length 0.000000
      axis 0.0 0.0 90.0 xyz
   end
   begin
      id 21
      name RightHand_dum2
      direction -1.000000 0.000000 0.000000
      length 3.937000
      axis 0.0 0.0 90.0 xyz
   end
   begin
      id 22
      name RightHandThumb1
      direction 0.000000 0.000000 1.000000
      length 3.937000
      axis 0.0 0.0 90.0 xyz
      dof rx rz ry
   end
   begin
      id 23
      name LeftUpLeg
      direction 0.000000 -1.000000 0.000000
      length 16.346831
      axis 0.0 0.0 0.0 xyz
      dof rx ry rz
   end
   begin
      id 24
      name LeftLeg
      direction 0.000000 -1.000000 0.000000
      length 13.959795
      axis 0.0 0.0 0.0 xyz
      dof rx ry rz
   end
   begin
      id 25
      name LeftFoot
      direction 0.000000 -0.258819 0.965926
      length 5.165550
      axis 15.0 0.0 0.0 xyz
      dof rx ry rz
   end
   begin
      id 26
      name LeftToeBase
      direction 0.000000 0.000000 1.000000
      length 2.952750
      axis 0.0 0.0 0.0 xyz
      dof rx ry rz
   end
   begin
      id 27
      name RightUpLeg
      direction 0.000000 -1.000000 0.000000
      length 16.346831
      axis 0.0 0.0 0.0 xyz
      dof rx ry rz
   end
   begin
      id 28
      name RightLeg
      direction 0.000000 -1.000000 0.000000
      length 13.959795
      axis 0.0 0.0 0.0 xyz
      dof rx ry rz
   end
   begin
      id 29
      name RightFoot
      direction 0.000000 -0.258819 0.965926
      length 5.165550
      axis 15.0 0.0 0.0 xyz
      dof rx ry rz
   end
   begin
      id 30
      name RightToeBase
      direction 0.000000 0.000000 1.000000
      length 2.952750
      axis 0.0 0.0 0.0 xyz
      dof rx ry rz
   end
:hierarchy
   begin
      root Spine_dum LeftUpLeg_dum RightUpLeg_dum
      Spine_dum Spine
      LeftUpLeg_dum LeftUpLeg
      RightUpLeg_dum RightUpLeg
      Spine Spine_dum1 Spine_dum2 Spine_dum3
      Spine_dum1 Head
      Spine_dum2 LeftShoulder
      Spine_dum3 RightShoulder
      LeftShoulder LeftArm
      LeftArm LeftForeArm
      LeftForeArm LeftHand
      LeftHand LeftHand_dum1 LeftHand_dum2
      LeftHand_dum1 LeftHandThumb1
      RightShoulder RightArm
      RightArm RightForeArm
      RightForeArm RightHand
      RightHand RightHand_dum1 RightHand_dum2
      RightHand_dum1 RightHandThumb1
      LeftUpLeg LeftLeg
      LeftLeg LeftFoot
      LeftFoot LeftToeBase
      RightUpLeg RightLeg
      RightLeg RightFoot
      RightFoot RightToeBase
   end

# File created by Blade
# Date/Time:  Tue Jan 27 18:35:03 2015
# Frame Rate: 120.000 fps
#------------------------------------------------------
:FULLY-SPECIFIED
:DEGREES
1047
root -4.076109 31.622535 -2.388983 -11.965588 14.602794 -15.003799
Spine 16.288253 -15.717152 -3.715064
Head 8.429254 -2.831962 16.956202
LeftShoulder -11.561561 9.505883 20.561990
LeftArm 35.963701 -9.399961 -74.233821
LeftForeArm 134.915060 -0.000000 132.787973
LeftHand 11.142120 0.000000 -9.314110
LeftHandThumb1 -26.253704 0.000000 33.147579
RightShoulder -16.808130 -11.173383 -4.279454
RightArm 0.949895 -32.839527 84.182861
RightForeArm -23.927490 0.000000 28.167087
RightHand -13.687045 -0.000000 12.189092
RightHandThumb1 -24.326973 -0.000000 -32.862282
LeftUpLeg -5.549561 3.659596 9.161297
LeftLeg 34.763046 -0.000000 -0.000000
LeftFoot -30.045289 8.993590 -18.289308
LeftToeBase 10.410598 -0.000000 -0.000000
RightUpLeg -89.568238 7.479520 25.320503
RightLeg 83.570815 -0.000000 -0.000000
RightFoot -10.083085 0.048494 29.338826
RightToeBase 5.255516 -0.000000 -0.000000
1048
root -4.070439 31.623278 -2.389550 -11.991357 14.660765 -15.022625
Spine 16.275456 -15.695368 -3.687887
Head 8.514833 -2.729676 17.098037
LeftShoulder -11.621281 9.603440 20.506108
LeftArm 36.004177 -9.445086 -74.165000
LeftForeArm 134.760656 -0.000000 132.858607
LeftHand 10.995632 -0.000000 -9.423797
LeftHandThumb1 -26.253704 0.000000 33.147579
RightShoulder -16.816760 -11.158420 -4.250266
RightArm 0.995110 -32.862113 84.157247
RightForeArm -23.943583 -0.000000 28.279935
RightHand -13.644387 -0.000000 12.150392
RightHandThumb1 -24.326973 -0.000000 -32.862282
LeftUpLeg -5.540024 3.634776 9.161264
LeftLeg 34.753440 -0.000000 -0.000000
LeftFoot -30.047255 8.983515 -18.275011
LeftToeBase 10.442534 -0.000000 -0.000000
RightUpLeg -89.543020 7.410331 25.278412
RightLeg 83.568571 -0.000000 -0.000000
RightFoot -10.095182 0.006462 29.256799
RightToeBase 4.896199 -0.000000 -0.000000
1049
root -4.062661 31.623809 -2.389797 -12.022686 14.723706 -15.024989
Spine 16.268373 -15.674760 -3.679502
Head 8.596413 -2.607215 17.233255
LeftShoulder -11.654012 9.681858 20.463957
LeftArm 36.015248 -9.557131 -74.208892
LeftForeArm 134.562772 -0.000000 132.947136
LeftHand 10.930270 -0.000000 -9.292042
LeftHandThumb1 -26.253704 0.000000 33.147579
RightShoulder -16.823926 -11.117152 -4.228486
RightArm 1.014518 -32.890675 84.139855
RightForeArm -23.876818 -0.000000 28.401082
RightHand -13.599149 -0.000000 12.115423
RightHandThumb1 -24.326973 -0.000000 -32.862282
LeftUpLeg -5.516076 3.599754 9.139538
LeftLeg 34.739874 -0.000000 -0.000000
LeftFoot -30.055969 8.963432 -18.287148
LeftToeBase 10.528535 -0.000000 -0.000000
RightUpLeg -89.520588 7.327916 25.251046
RightLeg 83.583607 -0.000000 -0.000000
RightFoot -10.099359 -0.053905 29.277806
RightToeBase 4.853287 -0.000000 -0.000000
1050
root -4.054862 31.623341 -2.388931 -12.054110 14.785512 -15.026402
Spine 16.244093 -15.642740 -3.663000
Head 8.694196 -2.426886 17.380997
LeftShoulder -11.645314 9.712816 20.427237
LeftArm 35.928464 -9.680449 -74.176348
LeftForeArm 134.410111 -0.000000 133.044916
LeftHand 10.787173 -0.000000 -9.097262
LeftHandThumb1 -26.253704 0.000000 33.147579
RightShoulder -16.833212 -11.061692 -4.238066
RightArm 1.028048 -32.943856 84.148976
RightForeArm -23.871259 -0.000000 28.482123
RightHand -13.630330 0.000000 12.152012
RightHandThumb1 -24.326973 -0.000000 -32.862282
LeftUpLeg -5.491417 3.529979 9.122340
LeftLeg 34.745595 -0.000000 -0.000000
LeftFoot -30.071344 8.889482 -18.340955
LeftToeBase 10.605854 -0.000000 -0.000000
RightUpLeg -89.496503 7.251806 25.218525
RightLeg 83.589908 -0.000000 -0.000000
RightFoot -10.116712 -0.124765 29.205265
RightToeBase 5.217887 -0.000000 -0.000000
